<svg id="Layer_1" enable-background="new 0 0 512 512" height="512" viewBox="0 0 512 512" width="512" xmlns="http://www.w3.org/2000/svg"><g><path d="m471.639 383.387c18.727-34.623 29.363-74.263 29.363-116.389 0-135.311-109.691-245.003-245.002-245.003s-245.002 109.691-245.002 245.003c0 42.126 10.636 81.766 29.363 116.389z" fill="#73c3f9"/><path d="m72.233 429.013 247.07 54.185v-161.189c0-11.262 9.162-20.425 20.424-20.425h82.849v-221.383c0-15.965-13.063-29.028-29.028-29.028h-80.951c0 9.386-7.637 17.023-17.023 17.023h-128.738c-9.386 0-17.023-7.637-17.023-17.023h-80.952c-15.966 0-29.028 13.063-29.028 29.028v302.186c8.993 16.811 19.889 32.449 32.399 46.63v-.004z" fill="#a05838"/><path d="m148.098 404.993c0-2.341-1.408-4.417-3.535-5.395-2.725-1.251-3.537-3.858-3.773-5.089-.066-.347-.094-.697-.094-1.05v-36.956c0-3.468 1.734-5.259 3.421-6.181 1.919-1.049 3.148-3.021 3.148-5.208v-42.568c0-2.272-1.371-4.261-3.415-5.251-3.052-1.478-4.081-4.023-4.421-5.379-.114-.453-.163-.916-.163-1.383v-33.363c0-4.958 3.006-7.474 5.511-8.71 2.005-.989 3.323-2.976 3.323-5.212v-42.87c0-2.263-1.309-4.308-3.342-5.303-8.928-4.374-8.658-15.071-8.658-15.071s0-59 0-71.667c0-6.424 2.723-10.945 5.406-13.839 2.203-2.377 2.158-6.083-.205-8.301-11.326-10.633-8.309-22.462-4.936-29.293.947-1.917.747-4.067-.292-5.73h-67.21c-15.966 0-29.028 13.063-29.028 29.028v302.186c8.993 16.811 19.889 32.449 32.399 46.63v-.004l75.865 16.638v-40.659z" fill="#823c26"/><g><path d="m255.073 34.682v-10.813c0-13.183-10.686-23.869-23.869-23.869-13.182 0-23.869 10.686-23.869 23.869v10.813z" fill="#ffb332"/></g><path d="m231.204 21.995c-8.441 0-15.852-4.385-20.097-10.998-2.384 3.715-3.772 8.129-3.772 12.871v10.813h47.738v-10.812c0-4.742-1.388-9.157-3.772-12.871-4.245 6.612-11.656 10.997-20.097 10.997z" fill="#ff9100"/><path d="m295.572 32.554h-128.736c-10.283 0-18.619 8.336-18.619 18.619 0 10.283 8.336 18.619 18.619 18.619h128.736c10.283 0 18.619-8.336 18.619-18.619 0-10.283-8.336-18.619-18.619-18.619z" fill="#ffdd40"/><path d="m215.625 51.173c0-10.283 8.336-18.619 18.619-18.619h-67.407c-10.283 0-18.619 8.336-18.619 18.619s8.336 18.619 18.619 18.619h67.407c-10.283 0-18.619-8.336-18.619-18.619z" fill="#ffb332"/><path d="m72.233 429.013c44.894 50.882 110.576 82.987 183.767 82.987 21.892 0 43.108-2.887 63.302-8.274v-181.717c0-11.262 9.162-20.425 20.424-20.425h50.45v-143.255h-317.943z" fill="#e9efff"/><path d="m136.098 158.329h-63.865v270.684c19.321 21.898 42.5 40.306 68.463 54.185v-21.695c0-4.861 2.519-7.5 4.618-8.855 1.704-1.101 2.784-2.943 2.784-4.972v-42.683c0-2.341-1.408-4.417-3.535-5.395-2.725-1.251-3.537-3.858-3.773-5.089-.066-.347-.094-.697-.094-1.05v-36.956c0-3.468 1.734-5.259 3.421-6.181 1.919-1.049 3.148-3.021 3.148-5.208v-42.568c0-2.272-1.371-4.261-3.415-5.251-3.052-1.478-4.081-4.023-4.421-5.379-.114-.453-.163-.916-.163-1.383v-33.363c0-4.958 3.006-7.474 5.511-8.71 2.005-.989 3.323-2.976 3.323-5.212v-42.87c0-2.263-1.309-4.308-3.342-5.303-8.928-4.374-8.658-15.071-8.658-15.071s-.002-9.492-.002-21.675z" fill="#d3dcfb"/><path d="m374.587 90.406h-286.765c-8.609 0-15.589 6.98-15.589 15.589v54.462h317.943v-54.462c0-8.609-6.98-15.589-15.589-15.589z" fill="#ffb332"/><path d="m141.503 94.497c1.072-1.157 1.602-2.629 1.601-4.091h-55.282c-8.609 0-15.589 6.979-15.589 15.589v54.462h63.865c0-18.386 0-44.233 0-52.12 0-6.425 2.722-10.945 5.405-13.84z" fill="#ff9100"/><g><path d="m273.564 118.763h-84.719c-13.812 0-25.048-11.237-25.048-25.048v-23.923c0-4.277 3.467-7.743 7.743-7.743s7.743 3.466 7.743 7.743v23.922c0 5.274 4.29 9.563 9.563 9.563h84.719c5.273 0 9.563-4.29 9.563-9.563v-23.922c0-4.277 3.466-7.743 7.742-7.743s7.743 3.466 7.743 7.743v23.922c-.001 13.812-11.238 25.049-25.049 25.049z" fill="#e9efff"/></g><g><path d="m353.306 133.174h-19.683c-4.276 0-7.742-3.466-7.742-7.742 0-4.277 3.466-7.743 7.742-7.743h19.683c4.276 0 7.743 3.466 7.743 7.743 0 4.276-3.467 7.742-7.743 7.742z" fill="#ffdd40"/></g><path d="m155.142 247.347h-25.535c-7.022 0-12.767-5.745-12.767-12.767v-25.535c0-7.022 5.745-12.767 12.767-12.767h25.535c7.022 0 12.767 5.745 12.767 12.767v25.535c.001 7.022-5.745 12.767-12.767 12.767z" fill="#3c58a0"/><g><path d="m137.648 237.178-18.055-18.056c-3.024-3.023-3.024-7.925 0-10.949 3.024-3.023 7.927-3.023 10.949 0l12.581 12.582 24.811-24.811c3.023-3.022 7.926-3.022 10.949 0 3.024 3.025 3.024 7.926 0 10.95l-30.286 30.286c-3.02 3.02-7.926 3.023-10.949-.002z" fill="#49d88b"/></g><g><path d="m250.368 212.433h-51.718c-4.276 0-7.743-3.466-7.743-7.743 0-4.276 3.467-7.742 7.743-7.742h51.718c4.276 0 7.743 3.466 7.743 7.742-.001 4.277-3.467 7.743-7.743 7.743z" fill="#bec8f7"/></g><g><path d="m353.306 240.195h-154.656c-4.276 0-7.743-3.466-7.743-7.743s3.467-7.742 7.743-7.742h154.656c4.276 0 7.743 3.466 7.743 7.742 0 4.278-3.467 7.743-7.743 7.743z" fill="#bec8f7"/></g><g><path d="m353.306 267.958h-154.656c-4.276 0-7.743-3.466-7.743-7.742 0-4.277 3.467-7.743 7.743-7.743h154.656c4.276 0 7.743 3.466 7.743 7.743 0 4.276-3.467 7.742-7.743 7.742z" fill="#bec8f7"/></g><path d="m155.142 349.357h-25.535c-7.022 0-12.767-5.745-12.767-12.767v-25.534c0-7.022 5.745-12.767 12.767-12.767h25.535c7.022 0 12.767 5.745 12.767 12.767v25.534c.001 7.022-5.745 12.767-12.767 12.767z" fill="#3c58a0"/><g><path d="m137.648 339.188-18.055-18.056c-3.024-3.023-3.024-7.925 0-10.949 3.024-3.022 7.927-3.022 10.949 0l12.581 12.582 24.811-24.811c3.023-3.022 7.926-3.022 10.949 0 3.024 3.024 3.024 7.926 0 10.951l-30.286 30.286c-3.02 3.019-7.926 3.022-10.949-.003z" fill="#49d88b"/></g><g><path d="m250.368 314.443h-51.718c-4.276 0-7.743-3.466-7.743-7.743 0-4.276 3.467-7.742 7.743-7.742h51.718c4.276 0 7.743 3.466 7.743 7.742-.001 4.277-3.467 7.743-7.743 7.743z" fill="#bec8f7"/></g><g><path d="m291.446 342.206h-92.796c-4.276 0-7.743-3.466-7.743-7.743s3.467-7.742 7.743-7.742h92.797c4.276 0 7.742 3.466 7.742 7.742s-3.466 7.743-7.743 7.743z" fill="#bec8f7"/></g><g><path d="m291.446 369.968h-92.796c-4.276 0-7.743-3.466-7.743-7.742s3.467-7.743 7.743-7.743h92.797c4.276 0 7.742 3.466 7.742 7.743s-3.466 7.742-7.743 7.742z" fill="#bec8f7"/></g><path d="m155.142 451.367h-25.535c-7.022 0-12.767-5.745-12.767-12.767v-25.534c0-7.022 5.745-12.767 12.767-12.767h25.535c7.022 0 12.767 5.745 12.767 12.767v25.534c.001 7.022-5.745 12.767-12.767 12.767z" fill="#3c58a0"/><g><path d="m137.648 441.198-18.055-18.056c-3.024-3.023-3.024-7.925 0-10.949 3.024-3.022 7.927-3.022 10.949 0l12.581 12.582 24.811-24.812c3.023-3.022 7.926-3.022 10.949 0 3.024 3.025 3.024 7.926 0 10.951l-30.286 30.286c-3.02 3.02-7.926 3.023-10.949-.002z" fill="#49d88b"/></g><g><path d="m250.368 416.453h-51.718c-4.276 0-7.743-3.466-7.743-7.742s3.467-7.743 7.743-7.743h51.718c4.276 0 7.743 3.466 7.743 7.743s-3.467 7.742-7.743 7.742z" fill="#bec8f7"/></g><g><path d="m291.446 444.215h-92.796c-4.276 0-7.743-3.466-7.743-7.743s3.467-7.743 7.743-7.743h92.797c4.276 0 7.742 3.466 7.742 7.743s-3.466 7.743-7.743 7.743z" fill="#bec8f7"/></g><g><path d="m291.446 471.978h-92.796c-4.276 0-7.743-3.466-7.743-7.742 0-4.277 3.467-7.743 7.743-7.743h92.797c4.276 0 7.742 3.466 7.742 7.743 0 4.276-3.466 7.742-7.743 7.742z" fill="#bec8f7"/></g><path d="m464.424 395.816v-73.807c0-12.142-9.878-22.02-22.02-22.02h-102.677c-12.142 0-22.02 9.878-22.02 22.02v182.149c61.724-16.015 113.984-55.494 146.717-108.342z" fill="#e9efff"/><path d="m339.726 299.989c-12.142 0-22.02 9.878-22.02 22.02v182.149c20.286-5.263 39.541-13.076 57.425-23.05 0-38.561 0-113.389 0-128.082 0-11.911 5.348-19.586 9.667-23.842 2.55-2.514 3.007-6.458 1.019-9.436-5.278-7.911-4.122-14.835-1.682-19.758h-44.409z" fill="#d3dcfb"/><g><path d="m357.043 389.754h-7.233c-4.276 0-7.743-3.466-7.743-7.743s3.467-7.743 7.743-7.743h7.233c4.276 0 7.743 3.466 7.743 7.743-.001 4.276-3.467 7.743-7.743 7.743z" fill="#bec8f7"/></g><g><path d="m357.043 445.278h-7.233c-4.276 0-7.743-3.466-7.743-7.742s3.467-7.742 7.743-7.742h7.233c4.276 0 7.743 3.466 7.743 7.742s-3.467 7.742-7.743 7.742z" fill="#bec8f7"/></g><g><path d="m430.542 389.754h-47.668c-4.276 0-7.742-3.466-7.742-7.743s3.466-7.743 7.742-7.743h47.668c4.276 0 7.743 3.466 7.743 7.743-.001 4.276-3.467 7.743-7.743 7.743z" fill="#bec8f7"/></g><g><path d="m430.542 417.516h-47.668c-4.276 0-7.742-3.466-7.742-7.743 0-4.276 3.466-7.742 7.742-7.742h47.668c4.276 0 7.743 3.466 7.743 7.742-.001 4.277-3.467 7.743-7.743 7.743z" fill="#bec8f7"/></g><path d="m430.542 429.793h-47.668c-4.276 0-7.742 3.466-7.742 7.742 0 4.277 3.466 7.743 7.742 7.743h41.163c4.313-4.067 8.479-8.288 12.489-12.655-1.42-1.728-3.573-2.83-5.984-2.83z" fill="#bec8f7"/><path d="m382.874 457.555c-4.276 0-7.742 3.466-7.742 7.743 0 4.276 3.466 7.742 7.742 7.742h5.729c7.412-4.78 14.542-9.956 21.376-15.485z" fill="#bec8f7"/><path d="m442.405 299.989h-102.679c-12.142 0-22.02 9.878-22.02 22.02v31.017h146.718v-31.017c0-12.142-9.878-22.02-22.019-22.02z" fill="#9bd8f9"/><path d="m385.818 319.747c-5.278-7.911-4.122-14.835-1.682-19.758h-44.41c-12.142 0-22.02 9.878-22.02 22.02v31.017h57.425c0-11.911 5.348-19.586 9.667-23.842 2.551-2.515 3.007-6.458 1.02-9.437z" fill="#73c3f9"/><path d="m472.167 382.387v-60.378c0-16.412-13.351-29.763-29.762-29.763h-102.678c-16.411 0-29.762 13.352-29.762 29.763v184.014c5.228-1.175 10.39-2.522 15.485-4.025v-179.989c0-7.886 6.392-14.278 14.278-14.278h16.204c2.45 0 4.436 1.986 4.436 4.436 0 7.051 5.769 12.819 12.819 12.819h35.757c7.051 0 12.819-5.769 12.819-12.819 0-2.45 1.986-4.436 4.436-4.436h16.206c7.885 0 14.277 6.392 14.277 14.277v85.548c5.647-8.048 10.821-16.451 15.485-25.169z" fill="#167cc1"/><path d="m388.851 292.246h-49.124c-16.411 0-29.763 13.352-29.763 29.764v184.014c5.227-1.175 10.39-2.522 15.485-4.025v-179.99c0-7.886 6.393-14.278 14.278-14.278h16.204c2.45 0 4.436 1.986 4.436 4.436 0 7.051 5.769 12.82 12.819 12.82h13.77c.281-1.779-.076-3.646-1.139-5.24-7.414-11.113-2.136-20.283 1.572-24.685.703-.834 1.185-1.799 1.462-2.816z" fill="#024788"/><g><path d="m160.941 224.71c-5.528 0-10.01-4.482-10.01-10.01 0-.666.068-1.317.193-1.947l-8.001 8.001-12.581-12.582c-3.023-3.022-7.926-3.022-10.949 0-3.024 3.024-3.024 7.926 0 10.949l18.055 18.056c3.023 3.025 7.929 3.021 10.949.001l12.475-12.475c-.043.001-.087.007-.131.007z" fill="#24b55e"/></g><g><path d="m160.941 326.453c-5.528 0-10.01-4.482-10.01-10.01 0-.557.057-1.099.145-1.631l-7.953 7.952-12.581-12.582c-3.023-3.022-7.926-3.022-10.949 0-3.024 3.025-3.024 7.926 0 10.95l18.055 18.056c3.023 3.025 7.929 3.022 10.949.001l12.757-12.757c-.138.006-.274.021-.413.021z" fill="#24b55e"/></g><g><path d="m160.941 426.463c-5.363 0-9.729-4.221-9.985-9.521l-7.833 7.833-12.581-12.582c-3.023-3.022-7.926-3.022-10.949 0-3.024 3.025-3.024 7.926 0 10.949l18.055 18.056c3.023 3.025 7.929 3.022 10.949.001l15.14-15.14c-.888.258-1.825.404-2.796.404z" fill="#24b55e"/></g></g></svg>