<svg id="Layer_1" enable-background="new 0 0 512 512" height="512" viewBox="0 0 512 512" width="512" xmlns="http://www.w3.org/2000/svg"><g><path d="m28.538 358.169c25.89 64.533 78.438 115.492 144.025 139.247h166.874c65.589-23.755 118.137-74.715 144.026-139.249l9.1-155.079c-28.114-104.316-123.364-181.093-236.563-181.093-113.207 0-208.462 76.787-236.569 181.113z" fill="#1c2e7a"/><g><path d="m256 217.478c-4.182 0-7.572-3.39-7.572-7.571v-40.314c0-4.182 3.39-7.572 7.572-7.572 4.181 0 7.571 3.39 7.571 7.572v40.314c.001 4.181-3.389 7.571-7.571 7.571z" fill="#e9efff"/></g><g><path d="m364.532 285.696h-40.314c-4.181 0-7.572-3.39-7.572-7.571 0-4.182 3.39-7.571 7.572-7.571h40.314c4.182 0 7.572 3.39 7.572 7.571s-3.39 7.571-7.572 7.571z" fill="#e9efff"/></g><g><path d="m256 394.229c-4.182 0-7.572-3.39-7.572-7.572v-40.314c0-4.181 3.39-7.571 7.572-7.571 4.181 0 7.571 3.39 7.571 7.571v40.314c.001 4.182-3.389 7.572-7.571 7.572z" fill="#e9efff"/></g><g><path d="m187.782 285.696h-40.314c-4.182 0-7.571-3.39-7.571-7.571 0-4.182 3.39-7.571 7.571-7.571h40.314c4.182 0 7.571 3.39 7.571 7.571s-3.39 7.571-7.571 7.571z" fill="#e9efff"/></g><circle cx="256" cy="88.582" fill="#f76ebb" r="81.01"/><path d="m313.066 146.072c-1.956-1.771-2.461-4.245-2.524-6.07-.044-1.253-1.164-2.194-2.411-2.068-15.491 1.567-46.625-5.682-54.18-7.521-.99-.241-1.68-1.126-1.68-2.145v-81.339c0-.638-.284-1.236-.757-1.664-8.625-7.806-5.684-15.552-3.556-19.07.615-1.016.259-2.296-.715-2.976-2.416-1.687-2.123-4.175-1.547-5.829.344-.987-.027-2.087-.925-2.622-2.822-1.681-3.943-3.721-4.172-5.714-37.372 7.196-65.609 40.057-65.609 79.53 0 44.741 36.27 81.01 81.01 81.01 22.263-.001 42.423-8.986 57.066-23.522z" fill="#f24ca7"/><circle cx="256" cy="278.125" fill="#4fabf7" r="68.219"/><g><path d="m397.849 70.2h-31.328c-4.182 0-7.572-3.39-7.572-7.571 0-4.182 3.39-7.571 7.572-7.571h31.328c4.182 0 7.572 3.39 7.572 7.571s-3.39 7.571-7.572 7.571z" fill="#f76ebb"/></g><g><path d="m420.988 96.154h-54.468c-4.182 0-7.572-3.39-7.572-7.571 0-4.182 3.39-7.572 7.572-7.572h54.468c4.182 0 7.572 3.39 7.572 7.572 0 4.181-3.39 7.571-7.572 7.571z" fill="#3c58a0"/></g><g><path d="m420.988 122.107h-54.468c-4.182 0-7.572-3.39-7.572-7.571 0-4.182 3.39-7.571 7.572-7.571h54.468c4.182 0 7.572 3.39 7.572 7.571 0 4.182-3.39 7.571-7.572 7.571z" fill="#3c58a0"/></g><g><path d="m449.637 397.009h-31.328c-4.182 0-7.571-3.39-7.571-7.572 0-4.181 3.39-7.571 7.571-7.571h31.328c4.181 0 7.571 3.39 7.571 7.571.001 4.183-3.389 7.572-7.571 7.572z" fill="#73c3f9"/></g><path d="m456.498 407.82h-38.19c-4.182 0-7.572 3.39-7.572 7.572s3.39 7.571 7.572 7.571h26.645c4.041-4.89 7.888-9.945 11.545-15.143z" fill="#3c58a0"/><path d="m418.309 433.774c-4.182 0-7.572 3.39-7.572 7.571s3.39 7.571 7.572 7.571h1.79c5.339-4.819 10.458-9.876 15.356-15.143h-17.146z" fill="#3c58a0"/><g><path d="m70.552 122.476h-31.329c-4.182 0-7.571-3.39-7.571-7.571s3.39-7.571 7.571-7.571h31.328c4.182 0 7.571 3.39 7.571 7.571s-3.389 7.571-7.57 7.571z" fill="#38c674"/></g><g><path d="m93.691 148.43h-54.468c-4.182 0-7.571-3.39-7.571-7.572s3.39-7.571 7.571-7.571h54.468c4.182 0 7.572 3.39 7.572 7.571 0 4.182-3.39 7.572-7.572 7.572z" fill="#3c58a0"/></g><g><path d="m93.691 174.383h-54.468c-4.182 0-7.571-3.39-7.571-7.571 0-4.182 3.39-7.572 7.571-7.572h54.468c4.182 0 7.572 3.39 7.572 7.572s-3.39 7.571-7.572 7.571z" fill="#3c58a0"/></g><g><path d="m122.34 446.16h-31.329c-4.181 0-7.571-3.39-7.571-7.571 0-4.182 3.39-7.572 7.571-7.572h31.328c4.182 0 7.571 3.39 7.571 7.572.001 4.182-3.389 7.571-7.57 7.571z" fill="#ffc839"/></g><path d="m145.479 456.971h-44.183c6.619 5.397 13.527 10.451 20.694 15.143h23.489c4.182 0 7.571-3.39 7.571-7.572.001-4.181-3.389-7.571-7.571-7.571z" fill="#3c58a0"/><path d="m307.667 136.718c-.168-.028.105.021-.56-.082l-.016.009c-5.322-.768-13.49 1.1-21.646-3.655-3.639 5.479-7.917 9.777-11.906 12.875-5.004 3.886-11.179 5.996-17.538 5.996s-12.534-2.111-17.538-5.996c-3.987-3.096-8.263-7.391-11.9-12.865-7.905 4.632-15.688 2.886-21.198 3.587-.001-.001-.003-.003-.003-.004-.656.088-.735.086-1.028.135l.048.044c-3.708.662-7.081 2.235-9.945 4.446 14.858 17.365 36.917 28.385 61.563 28.385 24.651 0 46.714-11.025 61.572-28.396-2.86-2.214-6.229-3.788-9.933-4.453z" fill="#e9efff"/><path d="m238.463 145.865c-3.987-3.096-8.263-7.391-11.9-12.865-7.905 4.632-15.688 2.886-21.198 3.587-.001-.001-.003-.003-.003-.004-.656.088-.735.086-1.028.135l.048.044c-3.708.662-7.081 2.235-9.945 4.446 5.241 6.125 11.381 11.455 18.21 15.796 3.548-.689 7.603-1.34 12.25-1.904 7.677-.933 13.503-3.412 17.92-6.465-1.523-.79-2.986-1.707-4.354-2.77z" fill="#bec8f7"/><path d="m225.608 133.529c3.829 6.191 8.513 10.984 12.854 14.355 5.004 3.886 11.178 5.996 17.538 5.996 6.359 0 12.534-2.111 17.538-5.996 4.344-3.374 9.031-8.17 12.862-14.367-2.246-1.171-4.5-2.815-6.702-5.132l.011-.013c-3.727-3.918-4.669-7.065-7.403-11.837-10.06 5.27-22.269 5.417-32.611 0-2.874 5.016-3.744 7.99-7.403 11.837l.011.013c-2.216 2.332-4.464 3.976-6.695 5.144z" fill="#fcad6d"/><path d="m253.589 120.451c-4.763-.325-9.498-1.613-13.894-3.915-2.874 5.016-3.744 7.99-7.403 11.837l.011.013c-2.216 2.331-4.464 3.976-6.694 5.144 3.829 6.191 8.513 10.984 12.854 14.355.863.67 1.771 1.267 2.698 1.829 12.363-7.524 14.84-19.717 14.84-19.717s-1.042-4.059-2.412-9.546z" fill="#fd995b"/><g><path d="m249.363 24.234c-19.933 2.716-21.828 14.018-21.837 18.164-.002.87-.484 1.676-1.266 2.056-10.369 5.044-4.778 29.354-4.778 29.354 1.041.069 2.603.963 3.416 1.357.199-1.239.524-2.458.983-3.637.35-.898.787-1.806 1.333-2.663.948-1.488 1.38-3.243 1.251-4.997-.373-5.072-.665-14.593 6.029-17.605 5.671-2.552 12.628-1.074 17.065.401 2.881.958 6.002.958 8.883 0 4.437-1.475 11.393-2.953 17.064-.401 6.675 3.004 6.401 12.477 6.033 17.562-.128 1.768.292 3.541 1.247 5.04.564.885 1.012 1.823 1.367 2.75.441 1.152.756 2.342.95 3.551 1.025-.496 2.961-1.509 4.214-1.332.153-5.316.644-11.046.644-11.046 5.908-28.933-21.136-41.479-42.598-38.554z" fill="#a05838"/></g><path d="m251.559 46.663c.233.077.469.138.705.203-.018-.614-.293-1.188-.75-1.602-8.625-7.806-5.684-15.552-3.556-19.07.339-.56.374-1.197.182-1.773-18.778 3.006-20.605 13.917-20.614 17.976-.002.87-.484 1.676-1.266 2.056-10.368 5.044-4.778 29.354-4.778 29.354 1.041.069 2.603.963 3.416 1.357.199-1.239.524-2.458.983-3.637.35-.898.787-1.806 1.333-2.663.948-1.488 1.38-3.243 1.251-4.997-.373-5.072-.665-14.593 6.029-17.605 5.672-2.552 12.629-1.074 17.065.401z" fill="#823c26"/><path d="m293.086 74.523c-1.553-1.423-4.645-.702-5.982.17.293 1.824.31 3.69.056 5.533l-1.578 11.492c0 .926-.029 1.835-.083 2.728 3.848 1.161 5.759-2.293 6.081-4.664.138-1.02.365-2.026.679-3.008 1.024-3.196 4.717-8.686.827-12.251z" fill="#fd995b"/><path d="m218.915 74.523c1.553-1.423 4.645-.702 5.982.17-.293 1.824-.31 3.69-.057 5.533l1.578 11.492c0 .926.029 1.835.083 2.728-3.848 1.161-5.759-2.293-6.081-4.664-.139-1.02-.365-2.026-.679-3.008-1.023-3.196-4.716-8.686-.826-12.251z" fill="#fd995b"/><path d="m286.626 71.142c-.355-.927-.803-1.865-1.367-2.75-.956-1.499-1.376-3.272-1.248-5.04.368-5.085.171-15.03-6.504-18.034-5.671-2.552-12.627-1.074-17.064.401-2.881.958-6.004.958-8.885 0-4.436-1.475-11.393-2.953-17.064-.401-6.694 3.012-6.874 13.006-6.501 18.077.129 1.754-.303 3.509-1.251 4.997-.546.857-.984 1.765-1.333 2.663-1.134 2.914-1.465 6.074-1.04 9.168l1.578 11.495c0 16.526 8.822 27.758 16.325 33.585 3.917 3.042 8.75 4.694 13.728 4.694s9.812-1.652 13.728-4.694c7.504-5.827 16.325-17.059 16.325-33.585l1.578-11.492c.422-3.064.103-6.193-1.005-9.084z" fill="#f9ba8f"/><g><path d="m258.405 125.303c-5.178-5.827-11.266-17.059-11.266-33.585l-1.089-11.495c-.293-3.094-.065-6.254.718-9.168.241-.898.543-1.806.92-2.663.654-1.488.952-3.243.863-4.997-.242-4.773-.144-13.901 3.719-17.471-.238-.065-.477-.127-.713-.205-4.436-1.475-11.393-2.953-17.064-.401-6.694 3.012-6.874 13.006-6.501 18.077.129 1.754-.303 3.509-1.251 4.997-.547.857-.984 1.765-1.333 2.663-1.134 2.914-1.465 6.074-1.04 9.168l1.578 11.495c0 16.526 8.822 27.758 16.325 33.585 3.917 3.042 8.75 4.694 13.728 4.694 2.406 0 4.776-.394 7.028-1.137-1.659-.794-3.226-1.986-4.622-3.557z" fill="#fcad6d"/></g><g><path d="m256 177.164c-48.844 0-88.582-39.738-88.582-88.582s39.738-88.582 88.582-88.582 88.581 39.738 88.581 88.582c.001 48.844-39.737 88.582-88.581 88.582zm0-162.021c-40.495 0-73.439 32.945-73.439 73.439s32.945 73.439 73.439 73.439 73.439-32.945 73.439-73.439-32.944-73.439-73.439-73.439z" fill="#fc90ce"/></g><path d="m321.038 148.277c-8.857.391-10.382-4.993-10.496-8.275-.021-.611-.301-1.145-.725-1.52-13.421 14.465-32.575 23.54-53.817 23.54-40.495 0-73.439-32.945-73.439-73.439 0-36.993 27.499-67.669 63.125-72.7-.165-.454-.476-.853-.916-1.115-6.832-4.07-3.715-10.245-2.01-12.768.218-.322.326-.688.357-1.059-42.76 6.258-75.699 43.173-75.699 87.642 0 48.844 39.738 88.582 88.582 88.582 25.858 0 49.162-11.139 65.371-28.868-.11-.013-.22-.025-.333-.02z" fill="#f76ebb"/><path d="m256 386.658c-44.741 0-81.01 36.27-81.01 81.01 0 11.735 2.515 22.876 7.004 32.944 23.35 7.39 48.21 11.388 74.006 11.388s50.655-3.998 74.007-11.388c4.488-10.068 7.004-21.209 7.004-32.944-.001-44.741-36.27-81.01-81.011-81.01z" fill="#ffc839"/><path d="m252.271 507.354v-81.339c0-.638-.284-1.236-.757-1.664-8.625-7.806-5.684-15.552-3.556-19.069.615-1.016.259-2.296-.715-2.976-2.416-1.687-2.123-4.175-1.547-5.829.344-.987-.027-2.087-.925-2.622-2.822-1.681-3.944-3.721-4.171-5.714-37.372 7.196-65.609 40.057-65.609 79.53 0 11.735 2.515 22.876 7.004 32.944 23.349 7.387 48.209 11.385 74.005 11.385 2.762 0 5.509-.063 8.249-.153-4.605-.987-8.289-1.859-10.298-2.348-.99-.242-1.68-1.127-1.68-2.145z" fill="#ffb332"/><path d="m228.928 510.504c8.891.977 17.92 1.496 27.072 1.496 9.155 0 18.188-.519 27.082-1.497-1.136-.855-2.267-1.856-3.384-3.031l.011-.013c-3.727-3.918-4.668-7.065-7.403-11.837-10.06 5.27-22.269 5.417-32.611 0-2.874 5.016-3.744 7.99-7.403 11.837l.011.013c-1.119 1.177-2.246 2.178-3.375 3.032z" fill="#fcad6d"/><path d="m228.928 510.504c8.601.945 17.332 1.453 26.177 1.485.665-1.777.896-2.906.896-2.906s-1.042-4.058-2.411-9.546c-4.763-.326-9.498-1.613-13.894-3.916-2.874 5.016-3.744 7.99-7.403 11.837l.011.013c-1.12 1.178-2.247 2.179-3.376 3.033z" fill="#fd995b"/><g><path d="m249.363 403.32c-19.933 2.716-21.828 14.017-21.837 18.164-.002.87-.484 1.675-1.266 2.056-10.369 5.044-4.778 29.354-4.778 29.354 1.041.07 2.603.963 3.416 1.357.199-1.239.524-2.458.983-3.637.35-.898.787-1.806 1.333-2.663.948-1.488 1.38-3.242 1.251-4.997-.373-5.072-.665-14.593 6.029-17.605 5.671-2.552 12.628-1.074 17.065.401 2.881.958 6.002.958 8.883 0 4.437-1.475 11.393-2.953 17.064-.401 6.675 3.004 6.401 12.477 6.033 17.562-.128 1.768.292 3.541 1.247 5.04.564.885 1.012 1.823 1.367 2.75.441 1.152.756 2.342.95 3.551 1.025-.496 2.961-1.509 4.214-1.332.153-5.316.644-11.046.644-11.046 5.908-28.933-21.136-41.479-42.598-38.554z" fill="#a05838"/></g><path d="m251.559 425.749c.233.077.469.138.705.203-.018-.614-.293-1.188-.75-1.602-8.625-7.806-5.684-15.552-3.556-19.069.339-.56.374-1.197.182-1.773-18.778 3.006-20.605 13.917-20.614 17.976-.002.87-.484 1.675-1.266 2.056-10.368 5.044-4.778 29.354-4.778 29.354 1.041.069 2.603.963 3.416 1.357.199-1.239.524-2.458.983-3.637.35-.898.787-1.806 1.333-2.663.948-1.488 1.38-3.242 1.251-4.997-.373-5.072-.665-14.593 6.029-17.605 5.672-2.553 12.629-1.075 17.065.4z" fill="#823c26"/><path d="m293.086 453.609c-1.553-1.423-4.645-.702-5.982.17.293 1.824.31 3.69.056 5.533l-1.578 11.492c0 .926-.029 1.835-.083 2.728 3.848 1.161 5.759-2.294 6.081-4.664.138-1.02.365-2.026.679-3.007 1.024-3.197 4.717-8.688.827-12.252z" fill="#fd995b"/><path d="m218.915 453.609c1.553-1.423 4.645-.702 5.982.17-.293 1.824-.31 3.69-.057 5.533l1.578 11.492c0 .926.029 1.835.083 2.728-3.848 1.161-5.759-2.294-6.081-4.664-.139-1.02-.365-2.026-.679-3.007-1.023-3.197-4.716-8.688-.826-12.252z" fill="#fd995b"/><path d="m286.626 450.228c-.355-.927-.803-1.865-1.367-2.75-.956-1.499-1.376-3.272-1.248-5.04.368-5.085.171-15.03-6.504-18.033-5.671-2.552-12.627-1.074-17.064.401-2.881.958-6.004.958-8.885 0-4.436-1.475-11.393-2.953-17.064-.401-6.694 3.012-6.874 13.006-6.501 18.077.129 1.754-.303 3.509-1.251 4.997-.546.857-.984 1.765-1.333 2.663-1.134 2.914-1.465 6.074-1.04 9.168l1.578 11.495c0 16.526 8.822 27.758 16.325 33.585 3.917 3.042 8.75 4.694 13.728 4.694s9.812-1.652 13.728-4.694c7.504-5.827 16.325-17.059 16.325-33.585l1.578-11.492c.422-3.065.103-6.194-1.005-9.085z" fill="#f9ba8f"/><g><path d="m258.405 504.389c-5.178-5.827-11.266-17.059-11.266-33.585l-1.089-11.495c-.293-3.094-.065-6.254.718-9.168.241-.898.543-1.806.92-2.663.654-1.488.952-3.243.863-4.997-.242-4.773-.144-13.901 3.719-17.471-.238-.066-.477-.127-.713-.205-4.436-1.475-11.393-2.953-17.064-.401-6.694 3.012-6.874 13.006-6.501 18.077.129 1.754-.303 3.509-1.251 4.997-.547.857-.984 1.765-1.333 2.663-1.134 2.914-1.465 6.074-1.04 9.168l1.578 11.495c0 16.526 8.822 27.758 16.325 33.585 3.917 3.042 8.75 4.694 13.728 4.694 2.406 0 4.776-.394 7.028-1.137-1.659-.794-3.226-1.986-4.622-3.557z" fill="#fcad6d"/></g><path d="m256 379.086c-48.844 0-88.582 39.738-88.582 88.582 0 10.432 1.818 20.445 5.145 29.748 6.341 2.297 12.807 4.33 19.38 6.106-5.964-10.612-9.382-22.838-9.382-35.854 0-40.494 32.945-73.439 73.439-73.439s73.439 32.945 73.439 73.439c0 13.015-3.418 25.241-9.381 35.854 6.572-1.776 13.039-3.809 19.38-6.105 3.327-9.303 5.145-19.316 5.145-29.748-.001-48.845-39.738-88.583-88.583-88.583z" fill="#ffe98d"/><path d="m182.561 467.668c0-36.993 27.499-67.669 63.125-72.7-.165-.454-.476-.853-.916-1.115-6.831-4.07-3.715-10.245-2.01-12.768.218-.322.326-.688.357-1.059-42.76 6.258-75.699 43.173-75.699 87.642 0 10.432 1.818 20.445 5.145 29.748 6.341 2.297 12.807 4.33 19.38 6.106-5.964-10.613-9.382-22.839-9.382-35.854z" fill="#ffc839"/><path d="m364.532 278.125c0 44.741 36.27 81.01 81.01 81.01 15.346 0 29.694-4.269 41.926-11.681 8.759-25.203 13.534-52.27 13.534-80.456 0-18.127-1.986-35.787-5.721-52.792-13.73-10.7-30.983-17.091-49.738-17.091-44.741 0-81.011 36.269-81.011 81.01z" fill="#73c3f9"/><path d="m463.525 324.259c-8.988-1.677-16.744-3.503-20.032-4.303-.99-.241-1.68-1.126-1.68-2.145v-81.339c0-.638-.284-1.236-.757-1.665-8.625-7.806-5.685-15.552-3.556-19.07.615-1.016.259-2.296-.715-2.976-2.416-1.687-2.123-4.174-1.547-5.829.344-.987-.027-2.087-.925-2.622-2.822-1.681-3.944-3.721-4.172-5.714-37.372 7.196-65.609 40.058-65.609 79.53 0 44.741 36.27 81.01 81.01 81.01 6.184 0 12.197-.716 17.983-2.029z" fill="#4fabf7"/><path d="m474.988 322.533c-3.639 5.479-7.917 9.777-11.906 12.875-5.004 3.886-11.179 5.996-17.538 5.996s-12.534-2.111-17.538-5.996c-3.987-3.096-8.263-7.391-11.9-12.865-7.905 4.632-15.688 2.886-21.198 3.587-.001-.001-.003-.003-.003-.004-.656.089-.735.086-1.028.135l.048.044c-3.708.662-7.081 2.235-9.945 4.446 14.858 17.365 36.917 28.385 61.563 28.385 15.354 0 29.702-4.279 41.933-11.702 2.436-7.01 4.56-14.164 6.361-21.447-5.172-.133-12.011.532-18.849-3.454z" fill="#e9efff"/><path d="m428.005 335.408c-3.987-3.096-8.263-7.391-11.9-12.865-7.905 4.632-15.688 2.886-21.198 3.587-.001-.001-.003-.003-.003-.004-.656.089-.735.086-1.028.135l.048.044c-3.708.662-7.081 2.235-9.945 4.446 5.241 6.125 11.38 11.455 18.21 15.796 3.548-.689 7.603-1.34 12.25-1.904 7.677-.933 13.503-3.412 17.92-6.465-1.523-.79-2.985-1.707-4.354-2.77z" fill="#bec8f7"/><path d="m415.151 323.072c3.829 6.191 8.513 10.984 12.854 14.355 5.004 3.886 11.178 5.996 17.538 5.996 6.359 0 12.534-2.11 17.538-5.996 4.344-3.374 9.031-8.171 12.861-14.367-2.246-1.171-4.5-2.815-6.702-5.132l.011-.013c-3.727-3.918-4.669-7.065-7.403-11.837-10.06 5.27-22.269 5.417-32.611 0-2.874 5.016-3.744 7.99-7.403 11.837l.011.013c-2.215 2.332-4.463 3.976-6.694 5.144z" fill="#fcad6d"/><path d="m443.132 309.994c-4.763-.326-9.498-1.613-13.894-3.915-2.874 5.016-3.744 7.99-7.403 11.837l.011.013c-2.216 2.331-4.464 3.976-6.695 5.144 3.829 6.191 8.513 10.984 12.854 14.355.863.67 1.771 1.267 2.698 1.83 12.363-7.524 14.84-19.717 14.84-19.717s-1.042-4.06-2.411-9.547z" fill="#fd995b"/><g><path d="m438.905 213.777c-19.933 2.716-21.828 14.018-21.837 18.164-.002.87-.484 1.676-1.266 2.056-10.369 5.044-4.778 29.354-4.778 29.354 1.041.07 2.603.963 3.416 1.357.199-1.239.524-2.458.983-3.637.35-.898.787-1.806 1.333-2.663.948-1.488 1.38-3.242 1.251-4.997-.373-5.072-.665-14.593 6.029-17.605 5.671-2.552 12.628-1.074 17.065.401 2.881.958 6.002.958 8.883 0 4.436-1.475 11.393-2.953 17.064-.401 6.675 3.003 6.401 12.477 6.033 17.562-.128 1.768.292 3.541 1.248 5.04.564.885 1.012 1.823 1.367 2.75.442 1.152.756 2.342.95 3.551 1.025-.496 2.961-1.509 4.214-1.332.153-5.316.644-11.046.644-11.046 5.907-28.933-21.136-41.479-42.599-38.554z" fill="#a05838"/></g><path d="m441.102 236.206c.233.077.469.138.705.203-.018-.614-.293-1.188-.75-1.602-8.625-7.806-5.684-15.552-3.556-19.07.339-.56.374-1.197.183-1.773-18.778 3.006-20.605 13.917-20.614 17.976-.002.87-.484 1.676-1.266 2.056-10.369 5.044-4.778 29.354-4.778 29.354 1.041.07 2.603.963 3.416 1.357.199-1.239.524-2.458.983-3.637.35-.898.787-1.806 1.333-2.663.948-1.488 1.38-3.242 1.251-4.997-.373-5.072-.665-14.593 6.029-17.605 5.67-2.552 12.627-1.074 17.064.401z" fill="#823c26"/><path d="m482.629 264.066c-1.552-1.423-4.645-.702-5.982.17.293 1.824.31 3.69.057 5.533l-1.578 11.492c0 .926-.029 1.835-.083 2.728 3.848 1.161 5.759-2.294 6.081-4.664.139-1.02.365-2.026.68-3.008 1.022-3.196 4.714-8.687.825-12.251z" fill="#fd995b"/><path d="m408.458 264.066c1.552-1.423 4.645-.702 5.982.17-.293 1.824-.31 3.69-.056 5.533l1.578 11.492c0 .926.029 1.835.083 2.728-3.848 1.161-5.759-2.294-6.081-4.664-.139-1.02-.365-2.026-.679-3.008-1.025-3.196-4.717-8.687-.827-12.251z" fill="#fd995b"/><path d="m476.169 260.685c-.355-.927-.803-1.865-1.367-2.75-.956-1.499-1.376-3.272-1.248-5.04.368-5.085.171-15.03-6.504-18.033-5.671-2.552-12.628-1.074-17.064.401-2.881.958-6.004.958-8.885 0-4.436-1.475-11.393-2.952-17.064-.401-6.694 3.012-6.874 13.005-6.501 18.077.129 1.754-.303 3.509-1.251 4.997-.546.857-.984 1.765-1.333 2.663-1.134 2.914-1.465 6.074-1.04 9.168l1.578 11.495c0 16.526 8.822 27.758 16.325 33.585 3.917 3.042 8.75 4.694 13.728 4.694s9.812-1.652 13.728-4.694c7.504-5.827 16.325-17.059 16.325-33.585l1.578-11.492c.421-3.065.102-6.194-1.005-9.085z" fill="#f9ba8f"/><g><path d="m447.948 314.846c-5.178-5.827-11.266-17.059-11.266-33.585l-1.089-11.495c-.293-3.094-.065-6.254.718-9.168.241-.898.543-1.806.92-2.663.654-1.488.952-3.242.863-4.997-.242-4.773-.143-13.901 3.719-17.471-.238-.066-.477-.127-.713-.206-4.436-1.475-11.393-2.952-17.064-.401-6.694 3.012-6.874 13.005-6.501 18.077.129 1.754-.303 3.509-1.251 4.997-.546.857-.984 1.765-1.333 2.663-1.134 2.914-1.465 6.074-1.04 9.168l1.578 11.495c0 16.526 8.822 27.758 16.325 33.585 3.917 3.042 8.75 4.694 13.728 4.694 2.406 0 4.776-.394 7.028-1.137-1.659-.793-3.226-1.985-4.622-3.556z" fill="#fcad6d"/></g><path d="m445.543 351.564c-40.494 0-73.439-32.945-73.439-73.439s32.945-73.439 73.439-73.439c20.346 0 38.782 8.321 52.095 21.734-1.319-7.913-3.016-15.696-5.074-23.333-13.636-8.575-29.758-13.544-47.021-13.544-48.844 0-88.582 39.738-88.582 88.582s39.738 88.582 88.582 88.582c13.561 0 26.418-3.067 37.92-8.538 2.96-7.378 5.57-14.933 7.813-22.645-12.558 10.026-28.452 16.04-45.733 16.04z" fill="#9bd8f9"/><path d="m445.543 351.564c-40.494 0-73.439-32.945-73.439-73.439 0-36.993 27.499-67.669 63.125-72.7-.165-.454-.476-.853-.916-1.115-6.832-4.07-3.715-10.245-2.011-12.768.218-.322.326-.688.358-1.059-42.76 6.258-75.699 43.173-75.699 87.642 0 48.844 39.738 88.582 88.582 88.582 13.562 0 26.419-3.068 37.921-8.54.738-1.84 1.455-3.691 2.149-5.553.002-.005.004-.01.006-.015.695-1.864 1.368-3.739 2.019-5.624v-.001c1.301-3.769 2.512-7.579 3.632-11.429.001-.005.003-.009.004-.014-12.555 10.027-28.452 16.033-45.731 16.033z" fill="#73c3f9"/><path d="m66.457 197.115c-18.755 0-36.008 6.391-49.738 17.09-3.735 17.005-5.721 34.666-5.721 52.793 0 28.186 4.775 55.254 13.534 80.457 12.231 7.412 26.579 11.681 41.925 11.681 44.741 0 81.011-36.27 81.011-81.01 0-44.742-36.27-81.011-81.011-81.011z" fill="#38c674"/><path d="m120.999 329.545c-.044-1.253-1.164-2.194-2.411-2.067-15.491 1.567-46.625-5.682-54.18-7.522-.99-.241-1.68-1.126-1.68-2.145v-81.339c0-.638-.284-1.236-.757-1.665-8.625-7.806-5.684-15.552-3.556-19.07.615-1.016.259-2.296-.715-2.976-2.416-1.687-2.123-4.174-1.547-5.829.344-.987-.027-2.087-.925-2.622-2.822-1.681-3.944-3.721-4.171-5.714-12.766 2.458-24.463 7.914-34.335 15.602-3.736 17.008-5.723 34.671-5.723 52.801 0 28.186 4.775 55.254 13.534 80.457 12.231 7.412 26.579 11.681 41.925 11.681 22.263 0 42.423-8.985 57.066-23.521-1.956-1.772-2.461-4.246-2.525-6.071z" fill="#24b55e"/><path d="m118.124 326.261c-.168-.028.105.021-.56-.082l-.016.009c-5.322-.768-13.49 1.1-21.646-3.655-3.639 5.479-7.917 9.777-11.906 12.875-5.004 3.886-11.179 5.996-17.538 5.996-6.36 0-12.534-2.111-17.538-5.996-3.987-3.096-8.263-7.391-11.9-12.865-6.846 4.011-13.596 3.241-18.862 3.418 1.802 7.292 3.928 14.455 6.367 21.473 12.23 7.423 26.579 11.702 41.932 11.702 24.651 0 46.714-11.025 61.572-28.396-2.86-2.214-6.229-3.789-9.933-4.453z" fill="#e9efff"/><path d="m37.02 322.543c-6.846 4.011-13.596 3.241-18.862 3.418 1.709 6.918 3.704 13.723 5.987 20.395 3.301-.617 7.001-1.201 11.21-1.712 7.677-.933 13.503-3.412 17.92-6.465-1.524-.79-2.986-1.707-4.355-2.77-3.987-3.097-8.263-7.391-11.9-12.866z" fill="#bec8f7"/><path d="m36.066 323.072c3.829 6.191 8.513 10.984 12.854 14.355 5.004 3.886 11.179 5.996 17.538 5.996s12.534-2.11 17.538-5.996c4.344-3.374 9.031-8.171 12.862-14.367-2.246-1.171-4.5-2.815-6.702-5.132l.011-.013c-3.727-3.918-4.669-7.065-7.403-11.837-10.06 5.27-22.269 5.417-32.611 0-2.874 5.016-3.744 7.99-7.403 11.837l.011.013c-2.217 2.332-4.464 3.976-6.695 5.144z" fill="#fcad6d"/><path d="m64.047 309.994c-4.763-.326-9.498-1.613-13.894-3.915-2.874 5.016-3.744 7.99-7.403 11.837l.011.013c-2.216 2.331-4.464 3.976-6.694 5.144 3.829 6.191 8.513 10.984 12.854 14.355.863.67 1.771 1.267 2.698 1.83 12.363-7.524 14.84-19.717 14.84-19.717s-1.043-4.06-2.412-9.547z" fill="#fd995b"/><g><path d="m59.82 213.777c-19.934 2.716-21.828 14.018-21.837 18.164-.002.87-.484 1.676-1.266 2.056-10.369 5.044-4.778 29.354-4.778 29.354 1.041.07 2.603.963 3.416 1.357.199-1.239.524-2.458.983-3.637.35-.898.787-1.806 1.333-2.663.948-1.488 1.38-3.242 1.251-4.997-.373-5.072-.665-14.593 6.029-17.605 5.671-2.552 12.628-1.074 17.064.401 2.881.958 6.002.958 8.883 0 4.437-1.475 11.393-2.953 17.064-.401 6.675 3.003 6.401 12.477 6.033 17.562-.128 1.768.292 3.541 1.248 5.04.564.885 1.012 1.823 1.367 2.75.441 1.152.756 2.342.95 3.551 1.025-.496 2.961-1.509 4.214-1.332.153-5.316.644-11.046.644-11.046 5.908-28.933-21.135-41.479-42.598-38.554z" fill="#a05838"/></g><path d="m62.016 236.206c.233.077.469.138.705.203-.018-.614-.293-1.188-.75-1.602-8.625-7.806-5.684-15.552-3.556-19.07.339-.56.374-1.197.182-1.773-18.778 3.006-20.605 13.917-20.614 17.976-.002.87-.484 1.676-1.266 2.056-10.368 5.044-4.778 29.354-4.778 29.354 1.041.07 2.603.963 3.416 1.357.199-1.239.524-2.458.983-3.637.35-.898.787-1.806 1.333-2.663.948-1.488 1.38-3.242 1.251-4.997-.373-5.072-.665-14.593 6.029-17.605 5.672-2.552 12.629-1.074 17.065.401z" fill="#823c26"/><path d="m103.543 264.066c-1.552-1.423-4.645-.702-5.982.17.293 1.824.31 3.69.057 5.533l-1.578 11.492c0 .926-.029 1.835-.083 2.728 3.848 1.161 5.759-2.294 6.081-4.664.139-1.02.365-2.026.68-3.008 1.023-3.196 4.715-8.687.825-12.251z" fill="#fd995b"/><path d="m29.372 264.066c1.553-1.423 4.645-.702 5.982.17-.293 1.824-.31 3.69-.057 5.533l1.578 11.492c0 .926.029 1.835.083 2.728-3.848 1.161-5.759-2.294-6.081-4.664-.139-1.02-.365-2.026-.679-3.008-1.023-3.196-4.715-8.687-.826-12.251z" fill="#fd995b"/><path d="m97.083 260.685c-.355-.927-.803-1.865-1.367-2.75-.956-1.499-1.376-3.272-1.248-5.04.368-5.085.171-15.03-6.504-18.033-5.671-2.552-12.628-1.074-17.064.401-2.881.958-6.004.958-8.885 0-4.436-1.475-11.393-2.952-17.064-.401-6.694 3.012-6.874 13.005-6.501 18.077.129 1.754-.303 3.509-1.251 4.997-.546.857-.984 1.765-1.333 2.663-1.134 2.914-1.465 6.074-1.04 9.168l1.578 11.495c0 16.526 8.821 27.758 16.325 33.585 3.917 3.042 8.75 4.694 13.728 4.694s9.812-1.652 13.728-4.694c7.504-5.827 16.325-17.059 16.325-33.585l1.578-11.492c.422-3.065.103-6.194-1.005-9.085z" fill="#f9ba8f"/><g><path d="m68.863 314.846c-5.178-5.827-11.266-17.059-11.266-33.585l-1.089-11.495c-.293-3.094-.065-6.254.718-9.168.241-.898.543-1.806.92-2.663.654-1.488.952-3.242.863-4.997-.242-4.773-.144-13.901 3.719-17.471-.238-.066-.477-.127-.713-.206-4.436-1.475-11.393-2.952-17.064-.401-6.694 3.012-6.874 13.005-6.501 18.077.129 1.754-.303 3.509-1.251 4.997-.546.857-.984 1.765-1.333 2.663-1.134 2.914-1.465 6.074-1.04 9.168l1.578 11.495c0 16.526 8.821 27.758 16.325 33.585 3.917 3.042 8.75 4.694 13.728 4.694 2.406 0 4.776-.394 7.028-1.137-1.659-.793-3.226-1.985-4.622-3.556z" fill="#fcad6d"/></g><path d="m66.457 189.543c-17.263 0-33.385 4.969-47.021 13.544-2.058 7.637-3.755 15.42-5.075 23.333 13.313-13.413 31.749-21.734 52.095-21.734 40.494 0 73.439 32.945 73.439 73.439s-32.944 73.439-73.439 73.439c-17.281 0-33.175-6.014-45.733-16.041 2.243 7.712 4.853 15.267 7.813 22.645 11.502 5.471 24.359 8.538 37.92 8.538 48.844 0 88.582-39.738 88.582-88.582.001-48.843-39.736-88.581-88.581-88.581z" fill="#49d88b"/><g fill="#38c674"><path d="m120.999 329.545c-.021-.611-.301-1.145-.725-1.52-13.421 14.465-32.575 23.54-53.817 23.54-17.281 0-33.175-6.014-45.733-16.041 2.243 7.712 4.853 15.267 7.813 22.645 11.502 5.471 24.359 8.538 37.92 8.538 25.858 0 49.163-11.139 65.371-28.869-.11-.012-.22-.024-.333-.019-8.857.392-10.381-4.992-10.496-8.274z"/><path d="m56.144 205.424c-.165-.454-.476-.853-.916-1.115-6.832-4.07-3.715-10.245-2.01-12.768.218-.322.326-.688.357-1.059-12.398 1.814-23.96 6.22-34.144 12.626-2.058 7.64-3.756 15.428-5.074 23.344 11.025-11.109 25.556-18.735 41.787-21.028z"/></g><path d="m283.156 340.711c-25.361-3.106-19.585-25.815-19.585-25.815l-20.86-68.614c-22.372-8.667-9.984-32.229-9.94-32.313-26.239 9.502-44.991 34.637-44.991 64.156 0 37.676 30.542 68.219 68.219 68.219 9.655 0 18.834-2.017 27.157-5.633z" fill="#1e9ef4"/><g><path d="m286.559 272.568c-8.163-8.162-19.015-12.658-30.559-12.658s-22.396 4.496-30.559 12.658c-2.957 2.957-7.751 2.957-10.708 0s-2.957-7.751 0-10.707c11.023-11.023 25.678-17.093 41.266-17.093s30.244 6.07 41.266 17.093c2.957 2.957 2.957 7.751 0 10.707-2.956 2.958-7.749 2.957-10.706 0z" fill="#e9efff"/></g><g><path d="m268.28 290.988c-6.772-6.771-17.79-6.772-24.56 0-2.957 2.957-7.751 2.958-10.708 0-2.957-2.957-2.957-7.751 0-10.707 12.676-12.675 33.301-12.675 45.975 0 2.957 2.957 2.957 7.751 0 10.707-2.957 2.957-7.75 2.957-10.707 0z" fill="#e9efff"/></g><g><circle cx="256" cy="307.761" fill="#e9efff" r="10.414"/></g></g></svg>